# xmcd
#
# Track frame offsets:
#	150
#	15242
#	33072
#	44152
#	59337
#	78652
#	92665
#	102442
#	119270
#	139527
#
# Disc length: 2072 seconds
# Revision: 1
# Processed by: cddbd v1.5.2PL0 Copyright (c) Steve Scherf et al.
# Submitted via: dBpowerAMP V12.0
#
DISCID=7a08160a
DTITLE=Willie Nelson - A Horse Called Music
DYEAR=1989
DGENRE=Country
TTITLE0=Nothing I Can Do About It Now
TTITLE1=The Highway
TTITLE2=I Never Cared for You
TTITLE3=If I Were a Painting
TTITLE4=Spirit
TTITLE5=There You Are
TTITLE6=Mr. Record Man
TTITLE7=If My World Didn't Have You
TTITLE8=A Horse Called Music
TTITLE9=Is the Better Part Over
EXTD=
EXTT0=
EXTT1=
EXTT2=
EXTT3=
EXTT4=
EXTT5=
EXTT6=
EXTT7=
EXTT8=
EXTT9=
PLAYORDER=
